<svg width="25" height="25" viewBox="0 0 25 25" fill="none" xmlns="http://www.w3.org/2000/svg">
<mask id="mask0_8_13476" style="mask-type:alpha" maskUnits="userSpaceOnUse" x="0" y="0" width="25" height="25">
<path fill-rule="evenodd" clip-rule="evenodd" d="M17.2353 14.6637H9.61727L7.98027 8.6637H20.2353L17.2353 14.6637ZM21.9363 7.6117C21.5693 7.0177 20.9333 6.6637 20.2353 6.6637H7.43527L6.81827 4.4007C6.69927 3.9657 6.30427 3.6637 5.85327 3.6637H3.85327C3.30027 3.6637 2.85327 4.1117 2.85327 4.6637C2.85327 5.2157 3.30027 5.6637 3.85327 5.6637H5.08927L7.88827 15.9267C8.00727 16.3617 8.40227 16.6637 8.85327 16.6637H17.8533C18.2323 16.6637 18.5783 16.4497 18.7483 16.1107L22.0243 9.5577C22.3373 8.9327 22.3033 8.2057 21.9363 7.6117ZM8.35347 18.6637C7.52547 18.6637 6.85347 19.3347 6.85347 20.1637C6.85347 20.9927 7.52547 21.6637 8.35347 21.6637C9.18147 21.6637 9.85347 20.9927 9.85347 20.1637C9.85347 19.3347 9.18147 18.6637 8.35347 18.6637ZM16.8535 20.1637C16.8535 19.3347 17.5255 18.6637 18.3535 18.6637C19.1815 18.6637 19.8535 19.3347 19.8535 20.1637C19.8535 20.9927 19.1815 21.6637 18.3535 21.6637C17.5255 21.6637 16.8535 20.9927 16.8535 20.1637Z" fill="#071435"/>
</mask>
<g mask="url(#mask0_8_13476)">
<rect width="24" height="24" transform="translate(0.853516 0.663696)" fill="white"/>
</g>
</svg>
