<svg width="16" height="16" viewBox="0 0 16 16" fill="none" xmlns="http://www.w3.org/2000/svg">
<mask id="mask0_5_6111" style="mask-type:alpha" maskUnits="userSpaceOnUse" x="0" y="0" width="16" height="17">
<path fill-rule="evenodd" clip-rule="evenodd" d="M7.33331 5.33386C7.33331 4.96586 7.63198 4.6672 7.99998 4.6672C8.36798 4.6672 8.66665 4.96586 8.66665 5.33386C8.66665 5.70186 8.36798 6.00053 7.99998 6.00053C7.63198 6.00053 7.33331 5.70186 7.33331 5.33386ZM7.33331 7.33386C7.33331 6.96586 7.63198 6.6672 7.99998 6.6672C8.36798 6.6672 8.66665 6.96586 8.66665 7.33386V10.6672C8.66665 11.0352 8.36798 11.3339 7.99998 11.3339C7.63198 11.3339 7.33331 11.0352 7.33331 10.6672V7.33386ZM7.99998 13.3339C5.05931 13.3339 2.66665 10.9412 2.66665 8.00053C2.66665 5.05986 5.05931 2.6672 7.99998 2.6672C10.9406 2.6672 13.3333 5.05986 13.3333 8.00053C13.3333 10.9412 10.9406 13.3339 7.99998 13.3339M7.99998 1.33386C4.31798 1.33386 1.33331 4.31853 1.33331 8.00053C1.33331 11.6825 4.31798 14.6672 7.99998 14.6672C11.6813 14.6672 14.6666 11.6825 14.6666 8.00053C14.6666 4.31853 11.6813 1.33386 7.99998 1.33386" fill="#071435"/>
</mask>
<g mask="url(#mask0_5_6111)">
<rect width="16" height="16" transform="translate(0 0.000488281)" fill="#77829E"/>
</g>
</svg>
