<svg width="24" height="25" viewBox="0 0 24 25" fill="none" xmlns="http://www.w3.org/2000/svg">
<mask id="mask0_5_7627" style="mask-type:alpha" maskUnits="userSpaceOnUse" x="0" y="0" width="24" height="25">
<path fill-rule="evenodd" clip-rule="evenodd" d="M11.9997 21.8584V21.8584C11.7347 21.8584 11.4797 21.7534 11.2927 21.5644L3.52468 13.7844C1.48868 11.7444 1.48868 8.4254 3.52468 6.3854C4.50868 5.4014 5.82068 4.8584 7.21968 4.8584C8.61868 4.8584 9.93168 5.4014 10.9147 6.3854L11.9997 7.4724L13.0847 6.3864C14.0687 5.4014 15.3807 4.8584 16.7807 4.8584C18.1787 4.8584 19.4917 5.4014 20.4747 6.3854C22.5117 8.4254 22.5117 11.7444 20.4757 13.7844L12.7077 21.5654C12.5197 21.7534 12.2657 21.8584 11.9997 21.8584" fill="#071435"/>
</mask>
<g mask="url(#mask0_5_7627)">
<rect width="24" height="24" transform="translate(0 0.858398)" fill="#FF3D71"/>
</g>
</svg>
