<svg width="124" height="26" viewBox="0 0 124 26" fill="none" xmlns="http://www.w3.org/2000/svg">
<path d="M14.6828 2.40049C14.6828 1.075 15.757 0.000488281 17.0822 0.000488281H21.8812C23.2064 0.000488281 24.2806 1.075 24.2806 2.40049V7.20049C24.2806 8.52597 23.2064 9.60049 21.8812 9.60049H17.0822C15.757 9.60049 14.6828 8.52597 14.6828 7.20049V2.40049Z" fill="#828EAD"/>
<path d="M14.6828 16.8005C14.6828 15.475 15.757 14.4005 17.0822 14.4005H21.8812C23.2063 14.4005 24.2806 15.475 24.2806 16.8005V21.6005C24.2806 22.926 23.2063 24.0005 21.8812 24.0005H17.0822C15.757 24.0005 14.6828 22.926 14.6828 21.6005V16.8005Z" fill="#828EAD"/>
<path d="M0.28595 16.8005C0.28595 15.475 1.36023 14.4005 2.68542 14.4005H7.48435C8.80954 14.4005 9.88382 15.475 9.88382 16.8005V21.6005C9.88382 22.926 8.80954 24.0005 7.48435 24.0005H2.68542C1.36023 24.0005 0.28595 22.926 0.28595 21.6005V16.8005Z" fill="#828EAD"/>
<path fill-rule="evenodd" clip-rule="evenodd" d="M14.6828 7.20049C14.6828 8.52597 13.6085 9.60049 12.2833 9.60049C10.9581 9.60049 9.88383 8.52597 9.88383 7.20049C9.88383 8.52597 8.80955 9.60049 7.48436 9.60049C8.80955 9.60049 9.88382 10.675 9.88382 12.0005C9.88382 13.326 8.80954 14.4005 7.48435 14.4005L9.88382 16.8005C9.88382 15.475 10.9581 14.4005 12.2833 14.4005C13.6085 14.4005 14.6828 15.475 14.6828 16.8005L17.0822 14.4005C15.757 14.4005 14.6828 13.326 14.6828 12.0005C14.6828 10.675 15.757 9.60049 17.0822 9.60049L14.6828 7.20049Z" fill="#828EAD"/>
<path d="M7.48436 0.000488281H2.68543C1.36024 0.000488281 0.285961 1.075 0.285961 2.40049V7.20049C0.285961 8.52597 1.36024 9.60049 2.68543 9.60049H7.48436L9.88383 7.20049V2.40049C9.88383 1.075 8.80955 0.000488281 7.48436 0.000488281Z" fill="#828EAD"/>
<path d="M9.88383 7.20049C9.88383 8.52597 8.80955 9.60049 7.48436 9.60049L9.88383 7.20049Z" fill="#828EAD"/>
<path d="M45.6834 9.32355C46.0044 9.22897 46.1777 8.87912 46.032 8.57788C44.7955 6.02103 42.2165 4.3833 39.1295 4.3833C36.9317 4.3833 35.1233 5.10353 33.6488 6.57169C32.2022 8.01216 31.4788 9.81273 31.4788 12.0011C31.4788 14.1895 32.2022 15.9901 33.6488 17.4583C35.1233 18.8987 36.9317 19.619 39.1295 19.619C42.2165 19.619 44.7955 17.9812 46.032 15.4244C46.1777 15.1231 46.0044 14.7733 45.6834 14.6787L43.2829 13.9712C43.0076 13.89 42.7186 14.0283 42.5702 14.2741C41.8602 15.4501 40.5946 16.1563 39.1295 16.1563C37.9888 16.1563 37.0151 15.7685 36.2361 14.9652C35.4572 14.1618 35.0677 13.1923 35.0677 12.0011C35.0677 10.81 35.4572 9.84043 36.2361 9.0371C37.0151 8.23377 37.9888 7.84595 39.1295 7.84595C40.5946 7.84595 41.8602 8.55214 42.5702 9.72816C42.7186 9.97391 43.0076 10.1122 43.2829 10.0311L45.6834 9.32355Z" fill="#828EAD"/>
<path d="M50.642 17.4583C52.1165 18.8987 53.9249 19.619 56.1227 19.619C58.3205 19.619 60.1289 18.8987 61.6034 17.4583C63.0779 15.9901 63.8012 14.1895 63.8012 12.0011C63.8012 9.81273 63.0779 8.01216 61.6034 6.57169C60.1289 5.10353 58.3205 4.3833 56.1227 4.3833C53.9249 4.3833 52.1165 5.10353 50.642 6.57169C49.1953 8.01216 48.472 9.81273 48.472 12.0011C48.472 14.1895 49.1953 15.9901 50.642 17.4583ZM53.2293 9.0371C54.0083 8.23377 54.982 7.84595 56.1227 7.84595C57.2633 7.84595 58.2371 8.23377 59.016 9.0371C59.795 9.84043 60.1845 10.81 60.1845 12.0011C60.1845 13.1923 59.795 14.1618 59.016 14.9652C58.2371 15.7685 57.2633 16.1563 56.1227 16.1563C54.982 16.1563 54.0083 15.7685 53.2293 14.9652C52.4504 14.1618 52.0609 13.1923 52.0609 12.0011C52.0609 10.81 52.4504 9.84043 53.2293 9.0371Z" fill="#828EAD"/>
<path d="M69.09 19.2034C69.4061 19.2034 69.6623 18.9472 69.6623 18.6311V10.7269C69.6623 8.9817 70.9977 7.67974 72.6947 7.67974C74.3918 7.67974 75.6993 8.9817 75.6993 10.7269V18.6311C75.6993 18.9472 75.9556 19.2034 76.2716 19.2034H78.6047C78.9207 19.2034 79.1769 18.9472 79.1769 18.6311V10.7269C79.1769 8.9817 80.5123 7.67974 82.2094 7.67974C83.9064 7.67974 85.214 8.9817 85.214 10.7269V18.6311C85.214 18.9472 85.4702 19.2034 85.7863 19.2034H88.0915C88.4076 19.2034 88.6638 18.9472 88.6638 18.6311V9.72963C88.6638 8.20606 88.1073 6.93181 87.0223 5.90687C85.9373 4.88192 84.5741 4.3833 82.9049 4.3833C81.2156 4.3833 79.8535 4.91998 78.8506 6.00927C78.5564 6.32884 78.0171 6.32876 77.724 6.00822C76.7284 4.91963 75.3898 4.3833 73.7241 4.3833C72.3655 4.3833 71.2209 4.7916 70.3045 5.62242C70.0757 5.82992 69.6623 5.68015 69.6623 5.37119C69.6623 5.05508 69.4061 4.79882 69.09 4.79882H66.7569C66.4409 4.79882 66.1847 5.05508 66.1847 5.37119V18.6311C66.1847 18.9472 66.4409 19.2034 66.7569 19.2034H69.09Z" fill="#828EAD"/>
<path d="M93.9503 25.4362C94.2664 25.4362 94.5226 25.18 94.5226 24.8639V19.3198C94.5226 18.8153 95.1183 18.5221 95.5588 18.7676C96.5704 19.3315 97.6772 19.619 98.8904 19.619C100.893 19.619 102.563 18.8988 103.926 17.4583C105.289 15.9901 105.957 14.1896 105.957 12.0012C105.957 9.81276 105.289 8.01218 103.926 6.57172C102.563 5.10356 100.893 4.38332 98.8904 4.38332C97.4393 4.38332 96.1403 4.79469 94.9744 5.59828C94.7875 5.72707 94.5226 5.59819 94.5226 5.37122C94.5226 5.0551 94.2664 4.79884 93.9503 4.79884H91.6172C91.3012 4.79884 91.045 5.0551 91.045 5.37122V24.8639C91.045 25.18 91.3012 25.4362 91.6172 25.4362H93.9503ZM101.2 9.03713C101.951 9.84046 102.34 10.81 102.34 12.0012C102.34 13.1923 101.951 14.1619 101.2 14.9652C100.448 15.7685 99.5303 16.1563 98.4453 16.1563C97.3603 16.1563 96.4422 15.7685 95.691 14.9652C94.9399 14.1619 94.5782 13.1923 94.5782 12.0012C94.5782 10.81 94.9399 9.84046 95.691 9.03713C96.4422 8.23379 97.3603 7.84598 98.4453 7.84598C99.5303 7.84598 100.448 8.23379 101.2 9.03713Z" fill="#828EAD"/>
<path d="M110.509 17.4583C111.983 18.8988 113.792 19.619 115.99 19.619C118.187 19.619 119.996 18.8988 121.47 17.4583C122.945 15.9901 123.668 14.1896 123.668 12.0012C123.668 9.81276 122.945 8.01218 121.47 6.57172C119.996 5.10356 118.187 4.38332 115.99 4.38332C113.792 4.38332 111.983 5.10356 110.509 6.57172C109.062 8.01218 108.339 9.81276 108.339 12.0012C108.339 14.1896 109.062 15.9901 110.509 17.4583ZM113.096 9.03713C113.875 8.23379 114.849 7.84598 115.99 7.84598C117.13 7.84598 118.104 8.23379 118.883 9.03713C119.662 9.84046 120.051 10.81 120.051 12.0012C120.051 13.1923 119.662 14.1619 118.883 14.9652C118.104 15.7685 117.13 16.1563 115.99 16.1563C114.849 16.1563 113.875 15.7685 113.096 14.9652C112.317 14.1619 111.928 13.1923 111.928 12.0012C111.928 10.81 112.317 9.84046 113.096 9.03713Z" fill="#828EAD"/>
</svg>
