<svg width="144" height="30" viewBox="0 0 144 30" fill="none" xmlns="http://www.w3.org/2000/svg">
<path d="M16.7965 2.8C16.7965 1.2536 18.0498 0 19.5959 0H25.1947C26.7407 0 27.994 1.2536 27.994 2.8V8.4C27.994 9.9464 26.7407 11.2 25.1947 11.2H19.5959C18.0498 11.2 16.7965 9.9464 16.7965 8.4V2.8Z" fill="#1551E5"/>
<path d="M16.7965 19.6C16.7965 18.0536 18.0498 16.8 19.5959 16.8H25.1946C26.7407 16.8 27.994 18.0536 27.994 19.6V25.2C27.994 26.7464 26.7407 28 25.1946 28H19.5959C18.0498 28 16.7965 26.7464 16.7965 25.2V19.6Z" fill="#1551E5"/>
<path d="M0.000244141 19.6C0.000244141 18.0536 1.25357 16.8 2.79962 16.8H8.39838C9.94443 16.8 11.1978 18.0536 11.1978 19.6V25.2C11.1978 26.7464 9.94443 28 8.39838 28H2.79962C1.25357 28 0.000244141 26.7464 0.000244141 25.2V19.6Z" fill="#1551E5"/>
<path fill-rule="evenodd" clip-rule="evenodd" d="M16.7965 8.4C16.7965 9.9464 15.5432 11.2 13.9971 11.2C12.4511 11.2 11.1978 9.9464 11.1978 8.4C11.1978 9.9464 9.94445 11.2 8.39839 11.2C9.94445 11.2 11.1978 12.4536 11.1978 14C11.1978 15.5464 9.94443 16.8 8.39838 16.8L11.1978 19.6C11.1978 18.0536 12.4511 16.8 13.9971 16.8C15.5432 16.8 16.7965 18.0536 16.7965 19.6L19.5959 16.8C18.0498 16.8 16.7965 15.5464 16.7965 14C16.7965 12.4536 18.0498 11.2 19.5959 11.2L16.7965 8.4Z" fill="#1551E5"/>
<path d="M8.39839 0H2.79964C1.25358 0 0.000257809 1.2536 0.000257809 2.8V8.4C0.000257809 9.9464 1.25358 11.2 2.79964 11.2H8.39839L11.1978 8.4V2.8C11.1978 1.2536 9.94445 0 8.39839 0Z" fill="#1551E5"/>
<path d="M11.1978 8.4C11.1978 9.9464 9.94445 11.2 8.39839 11.2L11.1978 8.4Z" fill="#1551E5"/>
<path d="M52.964 10.8768C53.3384 10.7665 53.5407 10.3583 53.3707 10.0069C51.9281 7.02391 48.9192 5.11322 45.3178 5.11322C42.7536 5.11322 40.6439 5.95349 38.9236 7.66635C37.2359 9.34688 36.392 11.4476 36.392 14.0007C36.392 16.5538 37.2359 18.6545 38.9236 20.3673C40.6439 22.0479 42.7536 22.8881 45.3178 22.8881C48.9192 22.8881 51.9281 20.9775 53.3707 17.9945C53.5407 17.643 53.3384 17.2349 52.964 17.1245L50.1634 16.2991C49.8422 16.2044 49.505 16.3658 49.3319 16.6525C48.5035 18.0245 47.027 18.8484 45.3178 18.8484C43.987 18.8484 42.851 18.3959 41.9422 17.4587C41.0334 16.5215 40.579 15.3904 40.579 14.0007C40.579 12.611 41.0334 11.4799 41.9422 10.5427C42.851 9.60543 43.987 9.15298 45.3178 9.15298C47.027 9.15298 48.5035 9.97687 49.3319 11.3489C49.505 11.6356 49.8422 11.7969 50.1634 11.7023L52.964 10.8768Z" fill="#171D45"/>
<path d="M58.749 20.3673C60.4693 22.0479 62.579 22.8881 65.1431 22.8881C67.7073 22.8881 69.817 22.0479 71.5373 20.3673C73.2575 18.6545 74.1014 16.5538 74.1014 14.0007C74.1014 11.4476 73.2575 9.34688 71.5373 7.66635C69.817 5.95349 67.7073 5.11322 65.1431 5.11322C62.579 5.11322 60.4693 5.95349 58.749 7.66635C57.0612 9.34688 56.2174 11.4476 56.2174 14.0007C56.2174 16.5538 57.0612 18.6545 58.749 20.3673ZM61.7676 10.5427C62.6764 9.60543 63.8124 9.15298 65.1431 9.15298C66.4739 9.15298 67.6099 9.60543 68.5187 10.5427C69.4275 11.4799 69.8819 12.611 69.8819 14.0007C69.8819 15.3904 69.4275 16.5215 68.5187 17.4587C67.6099 18.3959 66.4739 18.8484 65.1431 18.8484C63.8124 18.8484 62.6764 18.3959 61.7676 17.4587C60.8588 16.5215 60.4044 15.3904 60.4044 14.0007C60.4044 12.611 60.8588 11.4799 61.7676 10.5427Z" fill="#171D45"/>
<path d="M80.2717 22.4034C80.6404 22.4034 80.9393 22.1044 80.9393 21.7356V12.5141C80.9393 10.478 82.4973 8.95907 84.4772 8.95907C86.4571 8.95907 87.9826 10.478 87.9826 12.5141V21.7356C87.9826 22.1044 88.2815 22.4034 88.6502 22.4034H91.3721C91.7409 22.4034 92.0398 22.1044 92.0398 21.7356V12.5141C92.0398 10.478 93.5977 8.95907 95.5776 8.95907C97.5575 8.95907 99.083 10.478 99.083 12.5141V21.7356C99.083 22.1044 99.3819 22.4034 99.7506 22.4034H102.44C102.809 22.4034 103.108 22.1044 103.108 21.7356V11.3506C103.108 9.57311 102.459 8.08648 101.193 6.89071C99.9269 5.69495 98.3365 5.11322 96.3891 5.11322C94.4182 5.11322 92.829 5.73934 91.6591 7.01018C91.3158 7.38302 90.6867 7.38292 90.3447 7.00896C89.1831 5.73894 87.6214 5.11322 85.6781 5.11322C84.0931 5.11322 82.7578 5.58957 81.6886 6.55886C81.4216 6.80094 80.9393 6.62621 80.9393 6.26576C80.9393 5.89696 80.6404 5.59799 80.2717 5.59799H77.5498C77.1811 5.59799 76.8821 5.89696 76.8821 6.26576V21.7356C76.8821 22.1044 77.1811 22.4034 77.5498 22.4034H80.2717Z" fill="#171D45"/>
<path d="M109.275 29.675C109.644 29.675 109.943 29.376 109.943 29.0072V22.5391C109.943 21.9506 110.638 21.6085 111.152 21.8949C112.332 22.5528 113.623 22.8882 115.039 22.8882C117.376 22.8882 119.323 22.0479 120.914 20.3674C122.504 18.6545 123.283 16.5538 123.283 14.0007C123.283 11.4476 122.504 9.34692 120.914 7.66638C119.323 5.95352 117.376 5.11325 115.039 5.11325C113.346 5.11325 111.83 5.59318 110.47 6.5307C110.252 6.68095 109.943 6.53059 109.943 6.26579C109.943 5.89699 109.644 5.59802 109.275 5.59802H106.553C106.185 5.59802 105.886 5.89699 105.886 6.26579V29.0072C105.886 29.376 106.185 29.675 106.553 29.675H109.275ZM117.733 10.5427C118.609 11.4799 119.064 12.611 119.064 14.0007C119.064 15.3904 118.609 16.5215 117.733 17.4588C116.856 18.396 115.785 18.8484 114.519 18.8484C113.254 18.8484 112.183 18.396 111.306 17.4588C110.43 16.5215 110.008 15.3904 110.008 14.0007C110.008 12.611 110.43 11.4799 111.306 10.5427C112.183 9.60546 113.254 9.15301 114.519 9.15301C115.785 9.15301 116.856 9.60546 117.733 10.5427Z" fill="#171D45"/>
<path d="M128.594 20.3674C130.314 22.0479 132.424 22.8882 134.988 22.8882C137.552 22.8882 139.662 22.0479 141.382 20.3674C143.102 18.6545 143.946 16.5538 143.946 14.0007C143.946 11.4476 143.102 9.34692 141.382 7.66638C139.662 5.95352 137.552 5.11325 134.988 5.11325C132.424 5.11325 130.314 5.95352 128.594 7.66638C126.906 9.34692 126.062 11.4476 126.062 14.0007C126.062 16.5538 126.906 18.6545 128.594 20.3674ZM131.612 10.5427C132.521 9.60546 133.657 9.15301 134.988 9.15301C136.319 9.15301 137.455 9.60546 138.363 10.5427C139.272 11.4799 139.727 12.611 139.727 14.0007C139.727 15.3904 139.272 16.5215 138.363 17.4588C137.455 18.396 136.319 18.8484 134.988 18.8484C133.657 18.8484 132.521 18.396 131.612 17.4588C130.703 16.5215 130.249 15.3904 130.249 14.0007C130.249 12.611 130.703 11.4799 131.612 10.5427Z" fill="#171D45"/>
</svg>
