<svg width="16" height="16" viewBox="0 0 16 16" fill="none" xmlns="http://www.w3.org/2000/svg">
<mask id="mask0_5_7386" style="mask-type:alpha" maskUnits="userSpaceOnUse" x="0" y="0" width="16" height="16">
<path fill-rule="evenodd" clip-rule="evenodd" d="M4.6668 7.33285C4.6668 6.96485 4.96547 6.66618 5.33347 6.66618C5.70147 6.66618 6.00013 6.96485 6.00013 7.33285C6.00013 7.70084 5.70147 7.99951 5.33347 7.99951C4.96547 7.99951 4.6668 7.70084 4.6668 7.33285ZM8.00013 6.66618C7.63213 6.66618 7.33347 6.96485 7.33347 7.33285C7.33347 7.70084 7.63213 7.99951 8.00013 7.99951C8.36813 7.99951 8.6668 7.70084 8.6668 7.33285C8.6668 6.96485 8.36813 6.66618 8.00013 6.66618ZM10.6668 6.66618C10.2988 6.66618 10.0001 6.96485 10.0001 7.33285C10.0001 7.70084 10.2988 7.99951 10.6668 7.99951C11.0348 7.99951 11.3335 7.70084 11.3335 7.33285C11.3335 6.96485 11.0348 6.66618 10.6668 6.66618ZM13.2657 8.19611C12.9277 10.3654 11.1791 12.1648 9.01307 12.5708C7.96707 12.7681 6.90173 12.6554 5.93507 12.2461C5.66107 12.1301 5.37773 12.0714 5.09973 12.0714C4.97307 12.0714 4.84773 12.0834 4.7244 12.1081L2.84973 12.4828L3.22507 10.6048C3.30373 10.2148 3.25573 9.79745 3.08707 9.39811C2.67773 8.43145 2.56573 7.36678 2.7624 6.32011C3.1684 4.15411 4.96707 2.40544 7.13707 2.06744V2.06744C8.86373 1.79878 10.5524 2.34278 11.7711 3.56144C12.9904 4.78078 13.5351 6.47011 13.2657 8.19611M12.7144 2.61878C11.1911 1.09611 9.0844 0.416778 6.93173 0.749445C4.21373 1.17344 1.9604 3.36278 1.45173 6.07411C1.2064 7.37944 1.34773 8.70878 1.85907 9.91744C1.92373 10.0714 1.94373 10.2148 1.9184 10.3434L1.3464 13.2021C1.3024 13.4208 1.37107 13.6468 1.52907 13.8041C1.65507 13.9308 1.82507 13.9994 2.0004 13.9994C2.04373 13.9994 2.08707 13.9954 2.13107 13.9868L4.9864 13.4154C5.1504 13.3841 5.30907 13.4301 5.41507 13.4741C6.62507 13.9854 7.9544 14.1261 9.2584 13.8814C11.9704 13.3728 14.1597 11.1194 14.5837 8.40144C14.9184 6.25011 14.2377 4.14211 12.7144 2.61878" fill="#071435"/>
</mask>
<g mask="url(#mask0_5_7386)">
<rect width="16" height="16" fill="#1551E5"/>
</g>
</svg>
