<svg width="32" height="32" viewBox="0 0 32 32" fill="none" xmlns="http://www.w3.org/2000/svg">
<mask id="mask0_5_7344" style="mask-type:alpha" maskUnits="userSpaceOnUse" x="0" y="0" width="32" height="32">
<path fill-rule="evenodd" clip-rule="evenodd" d="M9.62626 7.99999C8.47426 7.99999 7.39426 8.44533 6.58626 9.25466C4.90893 10.9347 4.90893 13.6693 6.5876 15.352L15.9996 24.78L25.4129 15.352C27.0916 13.6693 27.0916 10.9347 25.4129 9.25466C23.7969 7.63466 20.9489 7.63733 19.3329 9.25466L16.9436 11.648C16.4423 12.1507 15.5569 12.1507 15.0556 11.648L12.6663 9.25333C11.8583 8.44533 10.7796 7.99999 9.62626 7.99999M15.9996 28V28C15.6463 28 15.3063 27.86 15.0569 27.608L4.6996 17.2347C1.98493 14.5147 1.98493 10.0893 4.6996 7.36933C6.0116 6.05733 7.76093 5.33333 9.62626 5.33333C11.4916 5.33333 13.2423 6.05733 14.5529 7.36933L15.9996 8.81866L17.4463 7.37066C18.7583 6.05733 20.5076 5.33333 22.3743 5.33333C24.2383 5.33333 25.9889 6.05733 27.2996 7.36933C30.0156 10.0893 30.0156 14.5147 27.3009 17.2347L16.9436 27.6093C16.6929 27.86 16.3543 28 15.9996 28" fill="#071435"/>
</mask>
<g mask="url(#mask0_5_7344)">
<rect width="32" height="32" fill="#77829E"/>
</g>
</svg>
