<svg width="16" height="16" viewBox="0 0 16 16" fill="none" xmlns="http://www.w3.org/2000/svg">
<mask id="mask0_5_6105" style="mask-type:alpha" maskUnits="userSpaceOnUse" x="0" y="0" width="16" height="17">
<path fill-rule="evenodd" clip-rule="evenodd" d="M11.6295 13.3339H4.3702C4.1662 13.3339 4.0002 13.1845 4.0002 13.0005V3.00053C4.0002 2.81653 4.1662 2.6672 4.3702 2.6672H7.33354V5.43386C7.33354 6.48186 8.14487 7.33386 9.14287 7.33386H12.0002V13.0005C12.0002 13.1845 11.8335 13.3339 11.6295 13.3339V13.3339ZM11.7662 6.00053H9.14287C8.8802 6.00053 8.66687 5.74653 8.66687 5.43386V2.6672H8.74154L11.7662 6.00053ZM13.1602 5.55253L9.53087 1.55253C9.40487 1.4132 9.22554 1.33386 9.03687 1.33386H4.3702C3.43087 1.33386 2.66687 2.08186 2.66687 3.00053V13.0005C2.66687 13.9192 3.43087 14.6672 4.3702 14.6672H11.6295C12.5689 14.6672 13.3335 13.9192 13.3335 13.0005V6.00053C13.3335 5.83453 13.2715 5.6752 13.1602 5.55253V5.55253Z" fill="#071435"/>
</mask>
<g mask="url(#mask0_5_6105)">
<rect width="16" height="16" transform="translate(0 0.000488281)" fill="#77829E"/>
</g>
</svg>
