<svg width="16" height="16" viewBox="0 0 16 16" fill="none" xmlns="http://www.w3.org/2000/svg">
<mask id="mask0_5_7400" style="mask-type:alpha" maskUnits="userSpaceOnUse" x="0" y="0" width="16" height="16">
<path fill-rule="evenodd" clip-rule="evenodd" d="M13.1598 2.84047C12.9285 2.60847 12.5531 2.60847 12.3218 2.84047L2.84047 12.3218C2.72447 12.4378 2.66647 12.5891 2.66647 12.7411C2.66647 12.8925 2.72447 13.0445 2.84047 13.1598C3.07181 13.3911 3.44647 13.3911 3.67847 13.1598L13.1598 3.67847C13.3911 3.44647 13.3911 3.0718 13.1598 2.84047M10.6667 12.6667C10.1153 12.6667 9.66667 12.218 9.66667 11.6667C9.66667 11.1153 10.1153 10.6667 10.6667 10.6667C11.218 10.6667 11.6667 11.1153 11.6667 11.6667C11.6667 12.218 11.218 12.6667 10.6667 12.6667M10.6667 9.33333C9.38001 9.33333 8.33334 10.38 8.33334 11.6667C8.33334 12.9533 9.38001 14 10.6667 14C11.9533 14 13 12.9533 13 11.6667C13 10.38 11.9533 9.33333 10.6667 9.33333M5.33334 4C5.88467 4 6.33334 4.44867 6.33334 5C6.33334 5.55133 5.88467 6 5.33334 6C4.78201 6 4.33334 5.55133 4.33334 5C4.33334 4.44867 4.78201 4 5.33334 4M5.33334 7.33333C6.62001 7.33333 7.66667 6.28667 7.66667 5C7.66667 3.71333 6.62001 2.66667 5.33334 2.66667C4.04667 2.66667 3.00001 3.71333 3.00001 5C3.00001 6.28667 4.04667 7.33333 5.33334 7.33333" fill="#071435"/>
</mask>
<g mask="url(#mask0_5_7400)">
<rect width="16" height="16" fill="#1551E5"/>
</g>
</svg>
