<svg width="25" height="25" viewBox="0 0 25 25" fill="none" xmlns="http://www.w3.org/2000/svg">
<mask id="mask0_8_13354" style="mask-type:alpha" maskUnits="userSpaceOnUse" x="0" y="0" width="25" height="25">
<path fill-rule="evenodd" clip-rule="evenodd" d="M5.35352 11.6637C5.35352 8.3547 8.04452 5.6637 11.3535 5.6637C14.6625 5.6637 17.3535 8.3547 17.3535 11.6637C17.3535 14.9727 14.6625 17.6637 11.3535 17.6637C8.04452 17.6637 5.35352 14.9727 5.35352 11.6637M21.0605 19.9567L17.6655 16.5607C18.7185 15.2067 19.3535 13.5097 19.3535 11.6637C19.3535 7.2527 15.7645 3.6637 11.3535 3.6637C6.94252 3.6637 3.35352 7.2527 3.35352 11.6637C3.35352 16.0747 6.94252 19.6637 11.3535 19.6637C13.1995 19.6637 14.8965 19.0287 16.2505 17.9757L19.6465 21.3707C19.8415 21.5657 20.0975 21.6637 20.3535 21.6637C20.6095 21.6637 20.8655 21.5657 21.0605 21.3707C21.4515 20.9797 21.4515 20.3477 21.0605 19.9567" fill="#071435"/>
</mask>
<g mask="url(#mask0_8_13354)">
<rect width="24" height="24" transform="translate(0.353516 0.663696)" fill="#050D23"/>
</g>
</svg>
