<svg width="16" height="16" viewBox="0 0 16 16" fill="none" xmlns="http://www.w3.org/2000/svg">
<mask id="mask0_5_6114" style="mask-type:alpha" maskUnits="userSpaceOnUse" x="0" y="0" width="16" height="17">
<path d="M14.3863 4.72454C14.2348 4.17974 13.7803 3.74963 13.2045 3.5991C12.1666 3.33386 7.99998 3.33386 7.99998 3.33386C7.99998 3.33386 3.83331 3.33386 2.78786 3.5991C2.2121 3.74246 1.76513 4.17257 1.60604 4.72454C1.33331 5.71379 1.33331 7.77831 1.33331 7.77831C1.33331 7.77831 1.33331 9.84282 1.61362 10.8321C1.76513 11.3769 2.21968 11.807 2.79543 11.9575C3.83331 12.2228 7.99998 12.2228 7.99998 12.2228C7.99998 12.2228 12.1666 12.2228 13.2121 11.9575C13.7879 11.8141 14.2348 11.384 14.3939 10.8321C14.6666 9.84282 14.6666 7.77831 14.6666 7.77831C14.6666 7.77831 14.6666 5.71379 14.3863 4.72454ZM6.63634 9.65644V5.90017L10.1212 7.77831L6.63634 9.65644Z" fill="#071435"/>
</mask>
<g mask="url(#mask0_5_6114)">
<rect width="16" height="16" transform="translate(0 0.000488281)" fill="#1551E5"/>
</g>
</svg>
